<svg xmlns="http://www.w3.org/2000/svg" width="1928.844" height="558.051" viewBox="0 0 1928.844 558.051">
  <defs>
    <linearGradient id="linearGradient-3" x1="959.422" x2="959.422" y1="0" y2="547.051" gradientUnits="userSpaceOnUse">
      <stop offset="0" stop-color="rgb(172,225,255)"/>
      <stop offset=".36" stop-color="rgb(117,205,255)"/>
      <stop offset=".49" stop-color="rgb(98,183,231)"/>
      <stop offset=".72" stop-color="rgb(74,154,200)"/>
    </linearGradient>
  </defs>
  <g transform="rotate(180 964.42199844 279.02540833)">
    <path fill="rgb(117,205,255)" fill-opacity=".5" fill-rule="evenodd" d="M10.130275 421.69907758s109.68340781 136.35173909 266.60235938 136.35173909c156.91895156 0 236.91482744-63.36711103 357.00576025-63.36711103 142.50818438 0 160.98663818 26.70065106 312.30286006 26.70065106 151.31531719 0 251.80800469-123.7471984 530.00302969-123.7471984s452.7997125 100.03486577 452.7997125 100.03486577V95H10l.130275 326.69907758z"/>
    <path fill="url(#linearGradient-3)" fill-rule="evenodd" d="M.130275 356.51772407s109.68340781 190.5330926 266.60235938 190.5330926c156.91895156 0 236.91482744-88.54695741 357.00576025-88.54695741 142.50818438 0 160.98663818 37.31054444 312.30286006 37.31054444 151.31531719 0 251.80800469-172.9199537 530.00302969-172.9199537s452.7997125 139.78517963 452.7997125 139.78517963V0H0l.130275 356.51772407z"/>
  </g>
</svg>
